<mxfile host="app.diagrams.net" modified="2024-06-14T17:55:28.698Z" agent="Mozilla/5.0 (Windows NT 10.0; Win64; x64) AppleWebKit/537.36 (KHTML, like Gecko) Chrome/125.0.0.0 Safari/537.36" etag="hK9tUP3BhSm1SPqhprLA" version="24.5.4" type="google">
  <diagram name="Page-1" id="k8euVFh2n9N9xjjN2gfO">
    <mxGraphModel grid="1" page="1" gridSize="10" guides="1" tooltips="1" connect="1" arrows="1" fold="1" pageScale="1" pageWidth="850" pageHeight="1100" math="0" shadow="0">
      <root>
        <mxCell id="0" />
        <mxCell id="1" parent="0" />
        <mxCell id="NC4hwwwxN1o7xKpPrsBJ-16" value="&lt;&lt;interface&gt;&gt;&#xa;Connection" style="swimlane;fontStyle=0;align=center;verticalAlign=top;childLayout=stackLayout;horizontal=1;startSize=40;horizontalStack=0;resizeParent=1;resizeLast=0;collapsible=1;marginBottom=0;rounded=0;shadow=0;strokeWidth=1;fillColor=#fff2cc;strokeColor=#d6b656;" vertex="1" parent="1">
          <mxGeometry x="-200" y="-2430" width="280" height="100" as="geometry">
            <mxRectangle x="110" y="-20" width="160" height="26" as="alternateBounds" />
          </mxGeometry>
        </mxCell>
        <mxCell id="NC4hwwwxN1o7xKpPrsBJ-21" value="" style="line;html=1;strokeWidth=1;align=left;verticalAlign=middle;spacingTop=-1;spacingLeft=3;spacingRight=3;rotatable=0;labelPosition=right;points=[];portConstraint=eastwest;" vertex="1" parent="NC4hwwwxN1o7xKpPrsBJ-16">
          <mxGeometry y="40" width="280" height="8" as="geometry" />
        </mxCell>
        <mxCell id="NC4hwwwxN1o7xKpPrsBJ-22" value="+ sendData(data: String, crc: Integer): String" style="text;align=left;verticalAlign=top;spacingLeft=4;spacingRight=4;overflow=hidden;rotatable=0;points=[[0,0.5],[1,0.5]];portConstraint=eastwest;rounded=0;shadow=0;html=0;" vertex="1" parent="NC4hwwwxN1o7xKpPrsBJ-16">
          <mxGeometry y="48" width="280" height="24" as="geometry" />
        </mxCell>
        <mxCell id="NC4hwwwxN1o7xKpPrsBJ-23" value="+ pict(): String" style="text;align=left;verticalAlign=top;spacingLeft=4;spacingRight=4;overflow=hidden;rotatable=0;points=[[0,0.5],[1,0.5]];portConstraint=eastwest;rounded=0;shadow=0;html=0;" vertex="1" parent="NC4hwwwxN1o7xKpPrsBJ-16">
          <mxGeometry y="72" width="280" height="16" as="geometry" />
        </mxCell>
        <mxCell id="NC4hwwwxN1o7xKpPrsBJ-79" value="&lt;&lt;interface&gt;&gt;&#xa;CRC_Calculator" style="swimlane;fontStyle=0;align=center;verticalAlign=top;childLayout=stackLayout;horizontal=1;startSize=40;horizontalStack=0;resizeParent=1;resizeLast=0;collapsible=1;marginBottom=0;rounded=0;shadow=0;strokeWidth=1;fillColor=#fff2cc;strokeColor=#d6b656;" vertex="1" parent="1">
          <mxGeometry x="-560" y="-2660" width="200" height="80" as="geometry">
            <mxRectangle x="110" y="-20" width="160" height="26" as="alternateBounds" />
          </mxGeometry>
        </mxCell>
        <mxCell id="NC4hwwwxN1o7xKpPrsBJ-81" value="" style="line;html=1;strokeWidth=1;align=left;verticalAlign=middle;spacingTop=-1;spacingLeft=3;spacingRight=3;rotatable=0;labelPosition=right;points=[];portConstraint=eastwest;" vertex="1" parent="NC4hwwwxN1o7xKpPrsBJ-79">
          <mxGeometry y="40" width="200" height="8" as="geometry" />
        </mxCell>
        <mxCell id="NC4hwwwxN1o7xKpPrsBJ-82" value="+ crcFor(data: String): Integer" style="text;align=left;verticalAlign=top;spacingLeft=4;spacingRight=4;overflow=hidden;rotatable=0;points=[[0,0.5],[1,0.5]];portConstraint=eastwest;rounded=0;shadow=0;html=0;" vertex="1" parent="NC4hwwwxN1o7xKpPrsBJ-79">
          <mxGeometry y="48" width="200" height="24" as="geometry" />
        </mxCell>
        <mxCell id="NC4hwwwxN1o7xKpPrsBJ-99" style="edgeStyle=orthogonalEdgeStyle;rounded=0;orthogonalLoop=1;jettySize=auto;html=1;" edge="1" parent="1" source="NC4hwwwxN1o7xKpPrsBJ-84" target="NC4hwwwxN1o7xKpPrsBJ-79">
          <mxGeometry relative="1" as="geometry" />
        </mxCell>
        <mxCell id="NC4hwwwxN1o7xKpPrsBJ-107" style="edgeStyle=orthogonalEdgeStyle;rounded=0;orthogonalLoop=1;jettySize=auto;html=1;" edge="1" parent="1" target="NC4hwwwxN1o7xKpPrsBJ-100">
          <mxGeometry relative="1" as="geometry">
            <mxPoint x="100.00000000000023" y="-2658.9655172413795" as="sourcePoint" />
            <Array as="points">
              <mxPoint x="120" y="-2659" />
              <mxPoint x="120" y="-2659" />
            </Array>
          </mxGeometry>
        </mxCell>
        <mxCell id="NC4hwwwxN1o7xKpPrsBJ-114" style="edgeStyle=orthogonalEdgeStyle;rounded=0;orthogonalLoop=1;jettySize=auto;html=1;entryX=0.5;entryY=0;entryDx=0;entryDy=0;" edge="1" parent="1" source="NC4hwwwxN1o7xKpPrsBJ-84" target="NC4hwwwxN1o7xKpPrsBJ-16">
          <mxGeometry relative="1" as="geometry" />
        </mxCell>
        <mxCell id="NC4hwwwxN1o7xKpPrsBJ-84" value="&lt;&lt;abstract&gt;&gt;&#xa;Dispositivo" style="swimlane;fontStyle=0;align=center;verticalAlign=top;childLayout=stackLayout;horizontal=1;startSize=40;horizontalStack=0;resizeParent=1;resizeLast=0;collapsible=1;marginBottom=0;rounded=0;shadow=0;strokeWidth=1;fillColor=#fff2cc;strokeColor=#d6b656;" vertex="1" parent="1">
          <mxGeometry x="-220" y="-2680" width="320" height="120" as="geometry">
            <mxRectangle x="110" y="-20" width="160" height="26" as="alternateBounds" />
          </mxGeometry>
        </mxCell>
        <mxCell id="NC4hwwwxN1o7xKpPrsBJ-85" value="" style="line;html=1;strokeWidth=1;align=left;verticalAlign=middle;spacingTop=-1;spacingLeft=3;spacingRight=3;rotatable=0;labelPosition=right;points=[];portConstraint=eastwest;" vertex="1" parent="NC4hwwwxN1o7xKpPrsBJ-84">
          <mxGeometry y="40" width="320" height="8" as="geometry" />
        </mxCell>
        <mxCell id="NC4hwwwxN1o7xKpPrsBJ-86" value="+ &lt;&lt;abstract&gt;&gt; send(data: String): String" style="text;align=left;verticalAlign=top;spacingLeft=4;spacingRight=4;overflow=hidden;rotatable=0;points=[[0,0.5],[1,0.5]];portConstraint=eastwest;rounded=0;shadow=0;html=0;" vertex="1" parent="NC4hwwwxN1o7xKpPrsBJ-84">
          <mxGeometry y="48" width="320" height="24" as="geometry" />
        </mxCell>
        <mxCell id="NC4hwwwxN1o7xKpPrsBJ-95" value="+ conectarCon(newConnection: Connection): String" style="text;align=left;verticalAlign=top;spacingLeft=4;spacingRight=4;overflow=hidden;rotatable=0;points=[[0,0.5],[1,0.5]];portConstraint=eastwest;rounded=0;shadow=0;html=0;" vertex="1" parent="NC4hwwwxN1o7xKpPrsBJ-84">
          <mxGeometry y="72" width="320" height="24" as="geometry" />
        </mxCell>
        <mxCell id="NC4hwwwxN1o7xKpPrsBJ-96" value="+ configurarCRC(newCRC: CRC_Calculator): String" style="text;align=left;verticalAlign=top;spacingLeft=4;spacingRight=4;overflow=hidden;rotatable=0;points=[[0,0.5],[1,0.5]];portConstraint=eastwest;rounded=0;shadow=0;html=0;" vertex="1" parent="NC4hwwwxN1o7xKpPrsBJ-84">
          <mxGeometry y="96" width="320" height="24" as="geometry" />
        </mxCell>
        <mxCell id="NC4hwwwxN1o7xKpPrsBJ-118" style="edgeStyle=orthogonalEdgeStyle;rounded=0;orthogonalLoop=1;jettySize=auto;html=1;" edge="1" parent="1" source="NC4hwwwxN1o7xKpPrsBJ-87" target="NC4hwwwxN1o7xKpPrsBJ-79">
          <mxGeometry relative="1" as="geometry">
            <Array as="points">
              <mxPoint x="-610" y="-2560" />
              <mxPoint x="-610" y="-2620" />
            </Array>
          </mxGeometry>
        </mxCell>
        <mxCell id="NC4hwwwxN1o7xKpPrsBJ-87" value="CRC16_Calculator" style="swimlane;fontStyle=0;align=center;verticalAlign=top;childLayout=stackLayout;horizontal=1;startSize=30;horizontalStack=0;resizeParent=1;resizeLast=0;collapsible=1;marginBottom=0;rounded=0;shadow=0;strokeWidth=1;fillColor=#fff2cc;strokeColor=#d6b656;" vertex="1" parent="1">
          <mxGeometry x="-850" y="-2600" width="200" height="80" as="geometry">
            <mxRectangle x="110" y="-20" width="160" height="26" as="alternateBounds" />
          </mxGeometry>
        </mxCell>
        <mxCell id="NC4hwwwxN1o7xKpPrsBJ-88" value="" style="line;html=1;strokeWidth=1;align=left;verticalAlign=middle;spacingTop=-1;spacingLeft=3;spacingRight=3;rotatable=0;labelPosition=right;points=[];portConstraint=eastwest;" vertex="1" parent="NC4hwwwxN1o7xKpPrsBJ-87">
          <mxGeometry y="30" width="200" height="8" as="geometry" />
        </mxCell>
        <mxCell id="NC4hwwwxN1o7xKpPrsBJ-89" value="+ crcFor(data: String): Integer" style="text;align=left;verticalAlign=top;spacingLeft=4;spacingRight=4;overflow=hidden;rotatable=0;points=[[0,0.5],[1,0.5]];portConstraint=eastwest;rounded=0;shadow=0;html=0;" vertex="1" parent="NC4hwwwxN1o7xKpPrsBJ-87">
          <mxGeometry y="38" width="200" height="24" as="geometry" />
        </mxCell>
        <mxCell id="NC4hwwwxN1o7xKpPrsBJ-94" style="edgeStyle=orthogonalEdgeStyle;rounded=0;orthogonalLoop=1;jettySize=auto;html=1;entryX=0;entryY=0.5;entryDx=0;entryDy=0;" edge="1" parent="1" source="NC4hwwwxN1o7xKpPrsBJ-90" target="NC4hwwwxN1o7xKpPrsBJ-79">
          <mxGeometry relative="1" as="geometry">
            <Array as="points">
              <mxPoint x="-610" y="-2680" />
              <mxPoint x="-610" y="-2620" />
            </Array>
          </mxGeometry>
        </mxCell>
        <mxCell id="NC4hwwwxN1o7xKpPrsBJ-90" value="CRC32_Calculator" style="swimlane;fontStyle=0;align=center;verticalAlign=top;childLayout=stackLayout;horizontal=1;startSize=30;horizontalStack=0;resizeParent=1;resizeLast=0;collapsible=1;marginBottom=0;rounded=0;shadow=0;strokeWidth=1;fillColor=#fff2cc;strokeColor=#d6b656;" vertex="1" parent="1">
          <mxGeometry x="-850" y="-2720" width="200" height="80" as="geometry">
            <mxRectangle x="110" y="-20" width="160" height="26" as="alternateBounds" />
          </mxGeometry>
        </mxCell>
        <mxCell id="NC4hwwwxN1o7xKpPrsBJ-91" value="" style="line;html=1;strokeWidth=1;align=left;verticalAlign=middle;spacingTop=-1;spacingLeft=3;spacingRight=3;rotatable=0;labelPosition=right;points=[];portConstraint=eastwest;" vertex="1" parent="NC4hwwwxN1o7xKpPrsBJ-90">
          <mxGeometry y="30" width="200" height="8" as="geometry" />
        </mxCell>
        <mxCell id="NC4hwwwxN1o7xKpPrsBJ-92" value="+ crcFor(data: String): Integer" style="text;align=left;verticalAlign=top;spacingLeft=4;spacingRight=4;overflow=hidden;rotatable=0;points=[[0,0.5],[1,0.5]];portConstraint=eastwest;rounded=0;shadow=0;html=0;" vertex="1" parent="NC4hwwwxN1o7xKpPrsBJ-90">
          <mxGeometry y="38" width="200" height="24" as="geometry" />
        </mxCell>
        <mxCell id="NC4hwwwxN1o7xKpPrsBJ-100" value="Ringer " style="swimlane;fontStyle=0;align=center;verticalAlign=top;childLayout=stackLayout;horizontal=1;startSize=30;horizontalStack=0;resizeParent=1;resizeLast=0;collapsible=1;marginBottom=0;rounded=0;shadow=0;strokeWidth=1;fillColor=#fff2cc;strokeColor=#d6b656;" vertex="1" parent="1">
          <mxGeometry x="180" y="-2690" width="200" height="62" as="geometry">
            <mxRectangle x="110" y="-20" width="160" height="26" as="alternateBounds" />
          </mxGeometry>
        </mxCell>
        <mxCell id="NC4hwwwxN1o7xKpPrsBJ-101" value="" style="line;html=1;strokeWidth=1;align=left;verticalAlign=middle;spacingTop=-1;spacingLeft=3;spacingRight=3;rotatable=0;labelPosition=right;points=[];portConstraint=eastwest;" vertex="1" parent="NC4hwwwxN1o7xKpPrsBJ-100">
          <mxGeometry y="30" width="200" height="8" as="geometry" />
        </mxCell>
        <mxCell id="NC4hwwwxN1o7xKpPrsBJ-102" value="+ ring()" style="text;align=left;verticalAlign=top;spacingLeft=4;spacingRight=4;overflow=hidden;rotatable=0;points=[[0,0.5],[1,0.5]];portConstraint=eastwest;rounded=0;shadow=0;html=0;" vertex="1" parent="NC4hwwwxN1o7xKpPrsBJ-100">
          <mxGeometry y="38" width="200" height="24" as="geometry" />
        </mxCell>
        <mxCell id="NC4hwwwxN1o7xKpPrsBJ-103" value="Display " style="swimlane;fontStyle=0;align=center;verticalAlign=top;childLayout=stackLayout;horizontal=1;startSize=30;horizontalStack=0;resizeParent=1;resizeLast=0;collapsible=1;marginBottom=0;rounded=0;shadow=0;strokeWidth=1;fillColor=#fff2cc;strokeColor=#d6b656;" vertex="1" parent="1">
          <mxGeometry x="180" y="-2610" width="200" height="62" as="geometry">
            <mxRectangle x="110" y="-20" width="160" height="26" as="alternateBounds" />
          </mxGeometry>
        </mxCell>
        <mxCell id="NC4hwwwxN1o7xKpPrsBJ-104" value="" style="line;html=1;strokeWidth=1;align=left;verticalAlign=middle;spacingTop=-1;spacingLeft=3;spacingRight=3;rotatable=0;labelPosition=right;points=[];portConstraint=eastwest;" vertex="1" parent="NC4hwwwxN1o7xKpPrsBJ-103">
          <mxGeometry y="30" width="200" height="8" as="geometry" />
        </mxCell>
        <mxCell id="NC4hwwwxN1o7xKpPrsBJ-105" value="+ showBanner(img: String): String" style="text;align=left;verticalAlign=top;spacingLeft=4;spacingRight=4;overflow=hidden;rotatable=0;points=[[0,0.5],[1,0.5]];portConstraint=eastwest;rounded=0;shadow=0;html=0;" vertex="1" parent="NC4hwwwxN1o7xKpPrsBJ-103">
          <mxGeometry y="38" width="200" height="24" as="geometry" />
        </mxCell>
        <mxCell id="NC4hwwwxN1o7xKpPrsBJ-109" style="edgeStyle=orthogonalEdgeStyle;rounded=0;orthogonalLoop=1;jettySize=auto;html=1;" edge="1" parent="1">
          <mxGeometry relative="1" as="geometry">
            <mxPoint x="100" y="-2579.2" as="sourcePoint" />
            <mxPoint x="180" y="-2579.2" as="targetPoint" />
            <Array as="points">
              <mxPoint x="120" y="-2579.2" />
              <mxPoint x="120" y="-2579.2" />
            </Array>
          </mxGeometry>
        </mxCell>
        <mxCell id="NC4hwwwxN1o7xKpPrsBJ-110" value="display" style="text;html=1;align=center;verticalAlign=middle;whiteSpace=wrap;rounded=0;fontSize=14;" vertex="1" parent="1">
          <mxGeometry x="110" y="-2600" width="50" height="15" as="geometry" />
        </mxCell>
        <mxCell id="NC4hwwwxN1o7xKpPrsBJ-111" value="ringer" style="text;html=1;align=center;verticalAlign=middle;whiteSpace=wrap;rounded=0;fontSize=14;" vertex="1" parent="1">
          <mxGeometry x="110" y="-2680" width="50" height="15" as="geometry" />
        </mxCell>
        <mxCell id="NC4hwwwxN1o7xKpPrsBJ-112" value="1" style="text;html=1;align=center;verticalAlign=middle;whiteSpace=wrap;rounded=0;fontSize=14;" vertex="1" parent="1">
          <mxGeometry x="110" y="-2660" width="50" height="20" as="geometry" />
        </mxCell>
        <mxCell id="NC4hwwwxN1o7xKpPrsBJ-113" value="1" style="text;html=1;align=center;verticalAlign=middle;whiteSpace=wrap;rounded=0;fontSize=14;" vertex="1" parent="1">
          <mxGeometry x="110" y="-2580" width="50" height="20" as="geometry" />
        </mxCell>
        <mxCell id="NC4hwwwxN1o7xKpPrsBJ-115" value="connection" style="text;html=1;align=center;verticalAlign=middle;whiteSpace=wrap;rounded=0;fontSize=14;" vertex="1" parent="1">
          <mxGeometry x="-50" y="-2520" width="60" height="15" as="geometry" />
        </mxCell>
        <mxCell id="NC4hwwwxN1o7xKpPrsBJ-116" value="1" style="text;html=1;align=center;verticalAlign=middle;whiteSpace=wrap;rounded=0;fontSize=14;" vertex="1" parent="1">
          <mxGeometry x="-90" y="-2522.5" width="30" height="20" as="geometry" />
        </mxCell>
        <mxCell id="NC4hwwwxN1o7xKpPrsBJ-119" value="crcCalculator" style="text;html=1;align=center;verticalAlign=middle;whiteSpace=wrap;rounded=0;fontSize=14;" vertex="1" parent="1">
          <mxGeometry x="-330" y="-2640" width="80" height="15" as="geometry" />
        </mxCell>
        <mxCell id="NC4hwwwxN1o7xKpPrsBJ-122" value="1" style="text;html=1;align=center;verticalAlign=middle;whiteSpace=wrap;rounded=0;fontSize=14;" vertex="1" parent="1">
          <mxGeometry x="-315" y="-2620" width="50" height="20" as="geometry" />
        </mxCell>
        <mxCell id="NC4hwwwxN1o7xKpPrsBJ-141" style="edgeStyle=orthogonalEdgeStyle;rounded=0;orthogonalLoop=1;jettySize=auto;html=1;dashed=1;dashPattern=8 8;" edge="1" parent="1" source="NC4hwwwxN1o7xKpPrsBJ-123" target="NC4hwwwxN1o7xKpPrsBJ-16">
          <mxGeometry relative="1" as="geometry" />
        </mxCell>
        <mxCell id="NC4hwwwxN1o7xKpPrsBJ-143" style="edgeStyle=orthogonalEdgeStyle;rounded=0;orthogonalLoop=1;jettySize=auto;html=1;entryX=0.5;entryY=0;entryDx=0;entryDy=0;dashed=1;dashPattern=8 8;" edge="1" parent="1" source="NC4hwwwxN1o7xKpPrsBJ-123" target="NC4hwwwxN1o7xKpPrsBJ-133">
          <mxGeometry relative="1" as="geometry" />
        </mxCell>
        <mxCell id="NC4hwwwxN1o7xKpPrsBJ-123" value="FourGAdapter" style="swimlane;fontStyle=0;align=center;verticalAlign=top;childLayout=stackLayout;horizontal=1;startSize=30;horizontalStack=0;resizeParent=1;resizeLast=0;collapsible=1;marginBottom=0;rounded=0;shadow=0;strokeWidth=1;fillColor=#fff2cc;strokeColor=#d6b656;" vertex="1" parent="1">
          <mxGeometry x="-380" y="-2250" width="280" height="100" as="geometry">
            <mxRectangle x="110" y="-20" width="160" height="26" as="alternateBounds" />
          </mxGeometry>
        </mxCell>
        <mxCell id="NC4hwwwxN1o7xKpPrsBJ-125" value="" style="line;html=1;strokeWidth=1;align=left;verticalAlign=middle;spacingTop=-1;spacingLeft=3;spacingRight=3;rotatable=0;labelPosition=right;points=[];portConstraint=eastwest;" vertex="1" parent="NC4hwwwxN1o7xKpPrsBJ-123">
          <mxGeometry y="30" width="280" height="8" as="geometry" />
        </mxCell>
        <mxCell id="NC4hwwwxN1o7xKpPrsBJ-126" value="+ sendData(data: String, crc: Integer): String" style="text;align=left;verticalAlign=top;spacingLeft=4;spacingRight=4;overflow=hidden;rotatable=0;points=[[0,0.5],[1,0.5]];portConstraint=eastwest;rounded=0;shadow=0;html=0;" vertex="1" parent="NC4hwwwxN1o7xKpPrsBJ-123">
          <mxGeometry y="38" width="280" height="24" as="geometry" />
        </mxCell>
        <mxCell id="NC4hwwwxN1o7xKpPrsBJ-127" value="+ pict(): String" style="text;align=left;verticalAlign=top;spacingLeft=4;spacingRight=4;overflow=hidden;rotatable=0;points=[[0,0.5],[1,0.5]];portConstraint=eastwest;rounded=0;shadow=0;html=0;" vertex="1" parent="NC4hwwwxN1o7xKpPrsBJ-123">
          <mxGeometry y="62" width="280" height="22" as="geometry" />
        </mxCell>
        <mxCell id="NC4hwwwxN1o7xKpPrsBJ-133" value="FourGAdapter" style="swimlane;fontStyle=0;align=center;verticalAlign=top;childLayout=stackLayout;horizontal=1;startSize=30;horizontalStack=0;resizeParent=1;resizeLast=0;collapsible=1;marginBottom=0;rounded=0;shadow=0;strokeWidth=1;fillColor=#fff2cc;strokeColor=#d6b656;" vertex="1" parent="1">
          <mxGeometry x="-380" y="-2090" width="280" height="108" as="geometry">
            <mxRectangle x="110" y="-20" width="160" height="26" as="alternateBounds" />
          </mxGeometry>
        </mxCell>
        <mxCell id="NC4hwwwxN1o7xKpPrsBJ-144" value="- symb: String" style="text;align=left;verticalAlign=top;spacingLeft=4;spacingRight=4;overflow=hidden;rotatable=0;points=[[0,0.5],[1,0.5]];portConstraint=eastwest;rounded=0;shadow=0;html=0;" vertex="1" parent="NC4hwwwxN1o7xKpPrsBJ-133">
          <mxGeometry y="30" width="280" height="24" as="geometry" />
        </mxCell>
        <mxCell id="NC4hwwwxN1o7xKpPrsBJ-134" value="" style="line;html=1;strokeWidth=1;align=left;verticalAlign=middle;spacingTop=-1;spacingLeft=3;spacingRight=3;rotatable=0;labelPosition=right;points=[];portConstraint=eastwest;" vertex="1" parent="NC4hwwwxN1o7xKpPrsBJ-133">
          <mxGeometry y="54" width="280" height="8" as="geometry" />
        </mxCell>
        <mxCell id="NC4hwwwxN1o7xKpPrsBJ-135" value="+ transmit(data: String, crc: Integer): String" style="text;align=left;verticalAlign=top;spacingLeft=4;spacingRight=4;overflow=hidden;rotatable=0;points=[[0,0.5],[1,0.5]];portConstraint=eastwest;rounded=0;shadow=0;html=0;" vertex="1" parent="NC4hwwwxN1o7xKpPrsBJ-133">
          <mxGeometry y="62" width="280" height="24" as="geometry" />
        </mxCell>
        <mxCell id="NC4hwwwxN1o7xKpPrsBJ-136" value="+ symb(): String" style="text;align=left;verticalAlign=top;spacingLeft=4;spacingRight=4;overflow=hidden;rotatable=0;points=[[0,0.5],[1,0.5]];portConstraint=eastwest;rounded=0;shadow=0;html=0;" vertex="1" parent="NC4hwwwxN1o7xKpPrsBJ-133">
          <mxGeometry y="86" width="280" height="22" as="geometry" />
        </mxCell>
        <mxCell id="NC4hwwwxN1o7xKpPrsBJ-142" style="edgeStyle=orthogonalEdgeStyle;rounded=0;orthogonalLoop=1;jettySize=auto;html=1;dashed=1;dashPattern=8 8;" edge="1" parent="1" source="NC4hwwwxN1o7xKpPrsBJ-137" target="NC4hwwwxN1o7xKpPrsBJ-16">
          <mxGeometry relative="1" as="geometry" />
        </mxCell>
        <mxCell id="NC4hwwwxN1o7xKpPrsBJ-137" value="WifiConn" style="swimlane;fontStyle=0;align=center;verticalAlign=top;childLayout=stackLayout;horizontal=1;startSize=30;horizontalStack=0;resizeParent=1;resizeLast=0;collapsible=1;marginBottom=0;rounded=0;shadow=0;strokeWidth=1;fillColor=#fff2cc;strokeColor=#d6b656;" vertex="1" parent="1">
          <mxGeometry x="-20" y="-2250" width="280" height="100" as="geometry">
            <mxRectangle x="110" y="-20" width="160" height="26" as="alternateBounds" />
          </mxGeometry>
        </mxCell>
        <mxCell id="NC4hwwwxN1o7xKpPrsBJ-138" value="" style="line;html=1;strokeWidth=1;align=left;verticalAlign=middle;spacingTop=-1;spacingLeft=3;spacingRight=3;rotatable=0;labelPosition=right;points=[];portConstraint=eastwest;" vertex="1" parent="NC4hwwwxN1o7xKpPrsBJ-137">
          <mxGeometry y="30" width="280" height="8" as="geometry" />
        </mxCell>
        <mxCell id="NC4hwwwxN1o7xKpPrsBJ-139" value="+ sendData(data: String, crc: Integer): String" style="text;align=left;verticalAlign=top;spacingLeft=4;spacingRight=4;overflow=hidden;rotatable=0;points=[[0,0.5],[1,0.5]];portConstraint=eastwest;rounded=0;shadow=0;html=0;" vertex="1" parent="NC4hwwwxN1o7xKpPrsBJ-137">
          <mxGeometry y="38" width="280" height="24" as="geometry" />
        </mxCell>
        <mxCell id="NC4hwwwxN1o7xKpPrsBJ-140" value="+ pict(): String" style="text;align=left;verticalAlign=top;spacingLeft=4;spacingRight=4;overflow=hidden;rotatable=0;points=[[0,0.5],[1,0.5]];portConstraint=eastwest;rounded=0;shadow=0;html=0;" vertex="1" parent="NC4hwwwxN1o7xKpPrsBJ-137">
          <mxGeometry y="62" width="280" height="22" as="geometry" />
        </mxCell>
        <mxCell id="NC4hwwwxN1o7xKpPrsBJ-145" value="&lt;font style=&quot;font-size: 16px;&quot;&gt;&lt;b style=&quot;font-size: 16px;&quot;&gt;&lt;i style=&quot;font-size: 16px;&quot;&gt;Adaptee&lt;/i&gt;&lt;/b&gt;&lt;/font&gt;" style="text;html=1;align=center;verticalAlign=middle;whiteSpace=wrap;rounded=0;fontSize=16;fontColor=#994C00;" vertex="1" parent="1">
          <mxGeometry x="-380" y="-2110" width="70" height="20" as="geometry" />
        </mxCell>
        <mxCell id="NC4hwwwxN1o7xKpPrsBJ-146" value="&lt;font style=&quot;font-size: 16px;&quot;&gt;&lt;b style=&quot;font-size: 16px;&quot;&gt;&lt;i style=&quot;font-size: 16px;&quot;&gt;Adapter&lt;/i&gt;&lt;/b&gt;&lt;/font&gt;" style="text;html=1;align=center;verticalAlign=middle;whiteSpace=wrap;rounded=0;fontSize=16;fontColor=#994C00;" vertex="1" parent="1">
          <mxGeometry x="-380" y="-2270" width="70" height="20" as="geometry" />
        </mxCell>
        <mxCell id="NC4hwwwxN1o7xKpPrsBJ-148" value="&lt;font style=&quot;font-size: 14px;&quot;&gt;&lt;b style=&quot;font-size: 14px;&quot;&gt;&lt;i style=&quot;font-size: 14px;&quot;&gt;Concrete Strategy&lt;/i&gt;&lt;/b&gt;&lt;/font&gt;" style="text;html=1;align=center;verticalAlign=middle;whiteSpace=wrap;rounded=0;fontSize=14;fontColor=#009900;" vertex="1" parent="1">
          <mxGeometry x="125" y="-2270" width="140" height="20" as="geometry" />
        </mxCell>
        <mxCell id="NC4hwwwxN1o7xKpPrsBJ-149" value="&lt;font style=&quot;font-size: 14px;&quot;&gt;&lt;b style=&quot;font-size: 14px;&quot;&gt;&lt;i style=&quot;font-size: 14px;&quot;&gt;Concrete Strategy&lt;/i&gt;&lt;/b&gt;&lt;/font&gt;" style="text;html=1;align=center;verticalAlign=middle;whiteSpace=wrap;rounded=0;fontSize=14;fontColor=#009900;" vertex="1" parent="1">
          <mxGeometry x="-235" y="-2270" width="140" height="20" as="geometry" />
        </mxCell>
        <mxCell id="NC4hwwwxN1o7xKpPrsBJ-150" value="&lt;font style=&quot;font-size: 16px;&quot;&gt;&lt;b style=&quot;font-size: 16px;&quot;&gt;&lt;i style=&quot;font-size: 16px;&quot;&gt;Target&lt;/i&gt;&lt;/b&gt;&lt;/font&gt;" style="text;html=1;align=center;verticalAlign=middle;whiteSpace=wrap;rounded=0;fontSize=16;fontColor=#994C00;" vertex="1" parent="1">
          <mxGeometry x="-200" y="-2450" width="60" height="20" as="geometry" />
        </mxCell>
        <mxCell id="NC4hwwwxN1o7xKpPrsBJ-152" value="&lt;font style=&quot;font-size: 16px;&quot;&gt;&lt;b style=&quot;font-size: 16px;&quot;&gt;&lt;i style=&quot;font-size: 16px;&quot;&gt;Strategy&lt;/i&gt;&lt;/b&gt;&lt;/font&gt;" style="text;html=1;align=center;verticalAlign=middle;whiteSpace=wrap;rounded=0;fontSize=16;fontColor=#009900;" vertex="1" parent="1">
          <mxGeometry x="5" y="-2450" width="70" height="20" as="geometry" />
        </mxCell>
        <mxCell id="NC4hwwwxN1o7xKpPrsBJ-153" value="&lt;font color=&quot;#009900&quot; style=&quot;font-size: 16px;&quot;&gt;&lt;b style=&quot;font-size: 16px;&quot;&gt;&lt;i style=&quot;font-size: 16px;&quot;&gt;Context&lt;/i&gt;&lt;/b&gt;&lt;/font&gt;" style="text;html=1;align=center;verticalAlign=middle;whiteSpace=wrap;rounded=0;fontSize=16;" vertex="1" parent="1">
          <mxGeometry x="30" y="-2700" width="70" height="20" as="geometry" />
        </mxCell>
        <mxCell id="NC4hwwwxN1o7xKpPrsBJ-154" value="&lt;font style=&quot;font-size: 16px;&quot;&gt;&lt;b style=&quot;font-size: 16px;&quot;&gt;&lt;i style=&quot;font-size: 16px;&quot;&gt;Client&lt;/i&gt;&lt;/b&gt;&lt;/font&gt;" style="text;html=1;align=center;verticalAlign=middle;whiteSpace=wrap;rounded=0;fontSize=16;fontColor=#994C00;" vertex="1" parent="1">
          <mxGeometry x="-220" y="-2700" width="60" height="20" as="geometry" />
        </mxCell>
        <mxCell id="NC4hwwwxN1o7xKpPrsBJ-155" value="&lt;font style=&quot;font-size: 16px;&quot;&gt;&lt;b style=&quot;font-size: 16px;&quot;&gt;&lt;i style=&quot;font-size: 16px;&quot;&gt;Strategy&lt;/i&gt;&lt;/b&gt;&lt;/font&gt;" style="text;html=1;align=center;verticalAlign=middle;whiteSpace=wrap;rounded=0;fontSize=16;fontColor=#009900;" vertex="1" parent="1">
          <mxGeometry x="-430" y="-2680" width="70" height="20" as="geometry" />
        </mxCell>
        <mxCell id="NC4hwwwxN1o7xKpPrsBJ-157" value="&lt;font style=&quot;font-size: 14px;&quot;&gt;&lt;b style=&quot;font-size: 14px;&quot;&gt;&lt;i style=&quot;font-size: 14px;&quot;&gt;Concrete Strategy&lt;/i&gt;&lt;/b&gt;&lt;/font&gt;" style="text;html=1;align=center;verticalAlign=middle;whiteSpace=wrap;rounded=0;fontSize=14;fontColor=#009900;" vertex="1" parent="1">
          <mxGeometry x="-790" y="-2740" width="140" height="20" as="geometry" />
        </mxCell>
        <mxCell id="NC4hwwwxN1o7xKpPrsBJ-158" value="&lt;font style=&quot;font-size: 14px;&quot;&gt;&lt;b style=&quot;font-size: 14px;&quot;&gt;&lt;i style=&quot;font-size: 14px;&quot;&gt;Concrete Strategy&lt;/i&gt;&lt;/b&gt;&lt;/font&gt;" style="text;html=1;align=center;verticalAlign=middle;whiteSpace=wrap;rounded=0;fontSize=14;fontColor=#009900;" vertex="1" parent="1">
          <mxGeometry x="-790" y="-2620" width="140" height="20" as="geometry" />
        </mxCell>
        <mxCell id="NC4hwwwxN1o7xKpPrsBJ-160" value="&lt;b&gt;&lt;i&gt;&lt;font style=&quot;font-size: 20px;&quot;&gt;&lt;font color=&quot;#994c00&quot;&gt;Patron Adapter&lt;/font&gt; y&amp;nbsp;&lt;/font&gt;&lt;/i&gt;&lt;/b&gt;&lt;b style=&quot;&quot;&gt;&lt;i&gt;&lt;font color=&quot;#009900&quot; style=&quot;font-size: 20px;&quot;&gt;Patron Strategy&lt;/font&gt;&lt;/i&gt;&lt;/b&gt;" style="text;html=1;align=center;verticalAlign=middle;resizable=0;points=[];autosize=1;strokeColor=none;fillColor=none;" vertex="1" parent="1">
          <mxGeometry x="-920" y="-2840" width="340" height="40" as="geometry" />
        </mxCell>
        <mxCell id="NC4hwwwxN1o7xKpPrsBJ-161" value="&lt;span style=&quot;font-size: 20px;&quot;&gt;&lt;b&gt;&lt;i&gt;ejercicio_12_DispositivoMovilYConexiones&lt;/i&gt;&lt;/b&gt;&lt;/span&gt;" style="text;html=1;align=center;verticalAlign=middle;resizable=0;points=[];autosize=1;strokeColor=none;fillColor=none;" vertex="1" parent="1">
          <mxGeometry x="30" y="-1960" width="430" height="40" as="geometry" />
        </mxCell>
      </root>
    </mxGraphModel>
  </diagram>
</mxfile>
